<!-- Generated by IcoMoon.io -->
<svg version="1.1" xmlns="http://www.w3.org/2000/svg" width="48" height="32" viewBox="0 0 48 32">
<title>untitled</title>
<path fill="#ababab" d="M0 0h48v32h-48v-32z"></path>
<path fill="#2e2e2e" d="M-2018-422h2880v1928h-2880v-1928z"></path>
<path fill="#ecd979" d="M40.165 18.935c-0.261-1.955-0.429-3.7-0.506-5.235-0.033-1.56 0.026-2.91 0.178-4.050l-37.94 21.905-1.795-3.109 37.94-21.905c-1.092-0.488-2.305-1.137-3.639-1.945-1.291-0.834-2.704-1.827-4.238-2.981l2.278-1.315c4.813 2.024 9.215 3.036 13.206 3.035l0.769 1.332c-2.025 3.406-3.35 7.724-3.975 12.954l-2.278 1.315z"></path>
<path fill="none" stroke="#ecd979" stroke-linejoin="miter" stroke-linecap="butt" stroke-miterlimit="4" stroke-width="2" d="M-156-31h249.034c16.016 0 29 12.984 29 29v38c0 16.016-12.984 29-29 29h-249.034c-16.016 0-29-12.984-29-29v-38c0-16.016 12.984-29 29-29z"></path>
<path fill="none" stroke="#9747ff" stroke-linejoin="miter" stroke-linecap="butt" stroke-miterlimit="4" stroke-width="2" d="M-216-207h369.034c4.971 0 9 4.029 9 9v294c0 4.971-4.029 9-9 9h-369.034c-4.971 0-9-4.029-9-9v-294c0-4.971 4.029-9 9-9z"></path>
</svg>
